<mxfile host="www.draw.io" modified="2019-11-30T17:41:28.107Z" agent="Mozilla/5.0 (Windows NT 10.0; Win64; x64) AppleWebKit/537.36 (KHTML, like Gecko) Chrome/78.0.3904.108 Safari/537.36" etag="5G0_YT05SfojhE4jD5dv" version="12.3.3" type="github" pages="1">
  <diagram id="0iXwuoybUoRtHolfaOFS" name="Page-1">
    <mxGraphModel dx="1422" dy="794" grid="1" gridSize="10" guides="1" tooltips="1" connect="1" arrows="1" fold="1" page="1" pageScale="1" pageWidth="850" pageHeight="1100" math="0" shadow="0">
      <root>
        <mxCell id="0"/>
        <mxCell id="1" parent="0"/>
        <mxCell id="gPyoXbTPJOdfipFQwK-K-1" value="Main" style="rounded=0;whiteSpace=wrap;html=1;" vertex="1" parent="1">
          <mxGeometry x="380" y="140" width="120" height="60" as="geometry"/>
        </mxCell>
        <mxCell id="gPyoXbTPJOdfipFQwK-K-2" value="Read_line" style="rounded=0;whiteSpace=wrap;html=1;" vertex="1" parent="1">
          <mxGeometry x="60" y="250" width="100" height="50" as="geometry"/>
        </mxCell>
        <mxCell id="gPyoXbTPJOdfipFQwK-K-3" value="Read_sentense" style="rounded=0;whiteSpace=wrap;html=1;" vertex="1" parent="1">
          <mxGeometry x="170" y="250" width="100" height="50" as="geometry"/>
        </mxCell>
        <mxCell id="gPyoXbTPJOdfipFQwK-K-4" value="Read_word" style="rounded=0;whiteSpace=wrap;html=1;" vertex="1" parent="1">
          <mxGeometry x="280" y="250" width="100" height="50" as="geometry"/>
        </mxCell>
        <mxCell id="gPyoXbTPJOdfipFQwK-K-5" value="Read_character" style="rounded=0;whiteSpace=wrap;html=1;" vertex="1" parent="1">
          <mxGeometry x="390" y="250" width="100" height="50" as="geometry"/>
        </mxCell>
        <mxCell id="gPyoXbTPJOdfipFQwK-K-6" value="Char_upper" style="rounded=0;whiteSpace=wrap;html=1;" vertex="1" parent="1">
          <mxGeometry x="500" y="250" width="100" height="50" as="geometry"/>
        </mxCell>
        <mxCell id="gPyoXbTPJOdfipFQwK-K-7" value="Char_lower" style="rounded=0;whiteSpace=wrap;html=1;" vertex="1" parent="1">
          <mxGeometry x="610" y="250" width="100" height="50" as="geometry"/>
        </mxCell>
        <mxCell id="gPyoXbTPJOdfipFQwK-K-8" value="Special_char" style="rounded=0;whiteSpace=wrap;html=1;" vertex="1" parent="1">
          <mxGeometry x="720" y="250" width="100" height="50" as="geometry"/>
        </mxCell>
        <mxCell id="gPyoXbTPJOdfipFQwK-K-10" value="" style="endArrow=none;html=1;exitX=0.5;exitY=1;exitDx=0;exitDy=0;entryX=0.5;entryY=0;entryDx=0;entryDy=0;" edge="1" parent="1" source="gPyoXbTPJOdfipFQwK-K-1" target="gPyoXbTPJOdfipFQwK-K-5">
          <mxGeometry width="50" height="50" relative="1" as="geometry">
            <mxPoint x="60" y="370" as="sourcePoint"/>
            <mxPoint x="110" y="320" as="targetPoint"/>
          </mxGeometry>
        </mxCell>
        <mxCell id="gPyoXbTPJOdfipFQwK-K-12" value="" style="endArrow=none;html=1;" edge="1" parent="1">
          <mxGeometry width="50" height="50" relative="1" as="geometry">
            <mxPoint x="120" y="220" as="sourcePoint"/>
            <mxPoint x="770" y="220" as="targetPoint"/>
            <Array as="points">
              <mxPoint x="120" y="220"/>
            </Array>
          </mxGeometry>
        </mxCell>
        <mxCell id="gPyoXbTPJOdfipFQwK-K-14" value="" style="endArrow=none;html=1;entryX=0.6;entryY=-0.02;entryDx=0;entryDy=0;entryPerimeter=0;" edge="1" parent="1" target="gPyoXbTPJOdfipFQwK-K-2">
          <mxGeometry width="50" height="50" relative="1" as="geometry">
            <mxPoint x="120" y="220" as="sourcePoint"/>
            <mxPoint x="120" y="240" as="targetPoint"/>
          </mxGeometry>
        </mxCell>
        <mxCell id="gPyoXbTPJOdfipFQwK-K-15" value="" style="endArrow=none;html=1;entryX=0.5;entryY=0;entryDx=0;entryDy=0;" edge="1" parent="1" target="gPyoXbTPJOdfipFQwK-K-3">
          <mxGeometry width="50" height="50" relative="1" as="geometry">
            <mxPoint x="220" y="220" as="sourcePoint"/>
            <mxPoint x="220" y="240" as="targetPoint"/>
          </mxGeometry>
        </mxCell>
        <mxCell id="gPyoXbTPJOdfipFQwK-K-16" value="" style="endArrow=none;html=1;" edge="1" parent="1" target="gPyoXbTPJOdfipFQwK-K-6">
          <mxGeometry width="50" height="50" relative="1" as="geometry">
            <mxPoint x="551" y="220" as="sourcePoint"/>
            <mxPoint x="140" y="269" as="targetPoint"/>
          </mxGeometry>
        </mxCell>
        <mxCell id="gPyoXbTPJOdfipFQwK-K-21" value="" style="endArrow=none;html=1;entryX=0.5;entryY=0;entryDx=0;entryDy=0;" edge="1" parent="1" target="gPyoXbTPJOdfipFQwK-K-4">
          <mxGeometry width="50" height="50" relative="1" as="geometry">
            <mxPoint x="330" y="220" as="sourcePoint"/>
            <mxPoint x="190" y="319" as="targetPoint"/>
          </mxGeometry>
        </mxCell>
        <mxCell id="gPyoXbTPJOdfipFQwK-K-22" value="" style="endArrow=none;html=1;" edge="1" parent="1">
          <mxGeometry width="50" height="50" relative="1" as="geometry">
            <mxPoint x="667" y="220" as="sourcePoint"/>
            <mxPoint x="667" y="250" as="targetPoint"/>
          </mxGeometry>
        </mxCell>
        <mxCell id="gPyoXbTPJOdfipFQwK-K-23" value="" style="endArrow=none;html=1;entryX=0.5;entryY=0;entryDx=0;entryDy=0;" edge="1" parent="1" target="gPyoXbTPJOdfipFQwK-K-8">
          <mxGeometry width="50" height="50" relative="1" as="geometry">
            <mxPoint x="770" y="220" as="sourcePoint"/>
            <mxPoint x="210" y="339" as="targetPoint"/>
          </mxGeometry>
        </mxCell>
      </root>
    </mxGraphModel>
  </diagram>
</mxfile>
